<?xml version="1.0" encoding="iso-8859-1"?>
<!-- Uploaded to: SVG Repo, www.svgrepo.com, Generator: SVG Repo Mixer Tools -->
<svg version="1.1" id="Layer_1" xmlns="http://www.w3.org/2000/svg" xmlns:xlink="http://www.w3.org/1999/xlink" 
	 viewBox="0 0 512 512" xml:space="preserve">
<circle style="fill:#D3D7DF;" cx="256" cy="256" r="243.2"/>
<circle style="fill:#FF877F;" cx="256" cy="256" r="25.6"/>
<g>
	<path style="fill:#573A32;" d="M256,512c141.38,0,256-114.62,256-256C512,114.611,397.38,0,256,0S0,114.611,0,256
		C0,397.38,114.62,512,256,512z M256,25.6c127.044,0,230.4,103.356,230.4,230.4S383.044,486.4,256,486.4S25.6,383.044,25.6,256
		S128.956,25.6,256,25.6z"/>
	<path style="fill:#573A32;" d="M217.6,256c0,21.205,17.195,38.4,38.4,38.4c21.205,0,38.4-17.195,38.4-38.4
		c0-16.691-10.718-30.763-25.6-36.053V102.4h-25.6v27.204l-20.378-81.502l-24.849,6.195l41.754,167.031
		C226.688,227.465,217.6,240.631,217.6,256z M256,243.2c7.057,0,12.8,5.743,12.8,12.8c0,7.057-5.743,12.8-12.8,12.8
		c-7.057,0-12.8-5.743-12.8-12.8C243.2,248.943,248.943,243.2,256,243.2z"/>
	<rect x="51.2" y="243.2" style="fill:#573A32;" width="25.6" height="25.6"/>
	<rect x="243.2" y="435.2" style="fill:#573A32;" width="25.6" height="25.6"/>
	<rect x="435.2" y="243.2" style="fill:#573A32;" width="25.6" height="25.6"/>
	<rect x="243.2" y="51.2" style="fill:#573A32;" width="25.6" height="25.6"/>
</g>
</svg>